<svg width="100" height="100" viewBox="0 0 100 100" fill="none" xmlns="http://www.w3.org/2000/svg">
  <path d="M50 62.5C56.9036 62.5 62.5 56.9036 62.5 50C62.5 43.0964 56.9036 37.5 50 37.5C43.0964 37.5 37.5 43.0964 37.5 50C37.5 56.9036 43.0964 62.5 50 62.5Z" fill="#66a6ff"/>
  <path d="M25 37.5C29.1421 37.5 32.5 34.1421 32.5 30C32.5 25.8579 29.1421 22.5 25 22.5C20.8579 22.5 17.5 25.8579 17.5 30C17.5 34.1421 20.8579 37.5 25 37.5Z" fill="#66a6ff"/>
  <path d="M75 37.5C79.1421 37.5 82.5 34.1421 82.5 30C82.5 25.8579 79.1421 22.5 75 22.5C70.8579 22.5 67.5 25.8579 67.5 30C67.5 34.1421 70.8579 37.5 75 37.5Z" fill="#66a6ff"/>
  <path d="M32.5 75C36.6421 75 40 71.6421 40 67.5C40 63.3579 36.6421 60 32.5 60C28.3579 60 25 63.3579 25 67.5C25 71.6421 28.3579 75 32.5 75Z" fill="#66a6ff"/>
  <path d="M67.5 75C71.6421 75 75 71.6421 75 67.5C75 63.3579 71.6421 60 67.5 60C63.3579 60 60 63.3579 60 67.5C60 71.6421 63.3579 75 67.5 75Z" fill="#66a6ff"/>
</svg>
